HIERARCHY
ROOT hip
{
  OFFSET 0 0 0
  CHANNELS 6 Xposition Yposition Zposition Zrotation Yrotation Xrotation
  JOINT abdomen
  {
    OFFSET 0 20.6881 -0.73152
    CHANNELS 3 Zrotation Xrotation Yrotation
    JOINT chest
    {
      OFFSET 0 11.7043 -0.48768
      CHANNELS 3 Zrotation Xrotation Yrotation
      JOINT neck
      {
        OFFSET 0 22.1894 -2.19456
        CHANNELS 3 Zrotation Xrotation Yrotation
        JOINT head
        {
          OFFSET -0.24384 7.07133 1.2192
          CHANNELS 3 Zrotation Xrotation Yrotation
          JOINT leftEye
          {
            OFFSET 4.14528 8.04674 8.04672
            CHANNELS 3 Zrotation Xrotation Yrotation
            End Site
            {
              OFFSET 1 0 0
            }
          }
          JOINT rightEye
          {
            OFFSET -3.6576 8.04674 8.04672
            CHANNELS 3 Zrotation Xrotation Yrotation
            End Site
            {
              OFFSET 1 0 0
            }
          }
        }
      }
      JOINT rCollar
      {
        OFFSET -2.68224 19.2634 -4.8768
        CHANNELS 3 Zrotation Xrotation Yrotation
        JOINT rShldr
        {
          OFFSET -8.77824 -1.95073 1.46304
          CHANNELS 3 Zrotation Xrotation Yrotation
          JOINT rForeArm
          {
            OFFSET -28.1742 -1.7115 0.48768
            CHANNELS 3 Zrotation Xrotation Yrotation
            JOINT rHand
            {
              OFFSET -22.5879 0.773209 7.07136
              CHANNELS 3 Zrotation Xrotation Yrotation
              JOINT rThumb1
              {
                OFFSET -1.2192 -0.487915 3.41376
                CHANNELS 3 Zrotation Xrotation Yrotation
                JOINT rThumb2
                {
                  OFFSET -3.37035 -0.52449 3.41376
                  CHANNELS 3 Zrotation Xrotation Yrotation
                  End Site
                  {
                    OFFSET -1.78271 -1.18214 1.43049
                  }
                }
              }
              JOINT rIndex1
              {
                OFFSET -7.75947 0.938293 5.60832
                CHANNELS 3 Zrotation Xrotation Yrotation
                JOINT rIndex2
                {
                  OFFSET -2.54057 -0.884171 1.56538
                  CHANNELS 3 Zrotation Xrotation Yrotation
                  End Site
                  {
                    OFFSET -1.62519 -0.234802 1.16502
                  }
                }
              }
              JOINT rMid1
              {
                OFFSET -8.24714 1.18213 3.41376
                CHANNELS 3 Zrotation Xrotation Yrotation
                JOINT rMid2
                {
                  OFFSET -3.10165 -0.590103 1.0647
                  CHANNELS 3 Zrotation Xrotation Yrotation
                  End Site
                  {
                    OFFSET -2.48547 -0.328903 0.83742
                  }
                }
              }
              JOINT rRing1
              {
                OFFSET -8.82822 0.546677 1.51678
                CHANNELS 3 Zrotation Xrotation Yrotation
                JOINT rRing2
                {
                  OFFSET -2.60934 -0.819778 -0.0198488
                  CHANNELS 3 Zrotation Xrotation Yrotation
                  End Site
                  {
                    OFFSET -2.33842 -0.294052 0.168128
                  }
                }
              }
              JOINT rPinky1
              {
                OFFSET -8.27202 -0.0477905 -0.4584
                CHANNELS 3 Zrotation Xrotation Yrotation
                JOINT rPinky2
                {
                  OFFSET -1.82734 -0.647385 -0.700984
                  CHANNELS 3 Zrotation Xrotation Yrotation
                  End Site
                  {
                    OFFSET -1.69225 -0.51767 -0.607171
                  }
                }
              }
            }
          }
        }
      }
      JOINT lCollar
      {
        OFFSET 2.68224 19.2634 -4.8768
        CHANNELS 3 Zrotation Xrotation Yrotation
        JOINT lShldr
        {
          OFFSET 8.77824 -1.95073 1.46304
          CHANNELS 3 Zrotation Xrotation Yrotation
          JOINT lForeArm
          {
            OFFSET 28.1742 -1.7115 0.48768
            CHANNELS 3 Zrotation Xrotation Yrotation
            JOINT lHand
            {
              OFFSET 22.5879 0.773209 7.07136
              CHANNELS 3 Zrotation Xrotation Yrotation
              JOINT lThumb1
              {
                OFFSET 1.2192 -0.487915 3.41376
                CHANNELS 3 Zrotation Xrotation Yrotation
                JOINT lThumb2
                {
                  OFFSET 3.37035 -0.52449 3.41376
                  CHANNELS 3 Zrotation Xrotation Yrotation
                  End Site
                  {
                    OFFSET 1.78271 -1.18214 1.43049
                  }
                }
              }
              JOINT lIndex1
              {
                OFFSET 7.75947 0.938293 5.60832
                CHANNELS 3 Zrotation Xrotation Yrotation
                JOINT lIndex2
                {
                  OFFSET 2.54057 -0.884171 1.56538
                  CHANNELS 3 Zrotation Xrotation Yrotation
                  End Site
                  {
                    OFFSET 1.62519 -0.234802 1.16502
                  }
                }
              }
              JOINT lMid1
              {
                OFFSET 8.24714 1.18213 3.41376
                CHANNELS 3 Zrotation Xrotation Yrotation
                JOINT lMid2
                {
                  OFFSET 3.10165 -0.590103 1.0647
                  CHANNELS 3 Zrotation Xrotation Yrotation
                  End Site
                  {
                    OFFSET 2.48547 -0.328903 0.83742
                  }
                }
              }
              JOINT lRing1
              {
                OFFSET 8.82822 0.546677 1.51678
                CHANNELS 3 Zrotation Xrotation Yrotation
                JOINT lRing2
                {
                  OFFSET 2.60934 -0.819778 -0.0198488
                  CHANNELS 3 Zrotation Xrotation Yrotation
                  End Site
                  {
                    OFFSET 2.33842 -0.294052 0.168128
                  }
                }
              }
              JOINT lPinky1
              {
                OFFSET 8.27202 -0.0477905 -0.4584
                CHANNELS 3 Zrotation Xrotation Yrotation
                JOINT lPinky2
                {
                  OFFSET 1.82734 -0.647385 -0.700984
                  CHANNELS 3 Zrotation Xrotation Yrotation
                  End Site
                  {
                    OFFSET 1.69225 -0.51767 -0.607171
                  }
                }
              }
            }
          }
        }
      }
    }
  }
  JOINT rButtock
  {
    OFFSET -8.77824 4.35084 1.2192
    CHANNELS 3 Zrotation Xrotation Yrotation
    JOINT rThigh
    {
      OFFSET 0 -1.70687 -2.19456
      CHANNELS 3 Zrotation Xrotation Yrotation
      JOINT rShin
      {
        OFFSET 0 -36.8199 0.73152
        CHANNELS 3 Zrotation Xrotation Yrotation
        JOINT rFoot
        {
          OFFSET 0.73152 -45.1104 -5.12064
          CHANNELS 3 Zrotation Xrotation Yrotation
          End Site
          {
            OFFSET -1.1221 -3.69964 12.103
          }
        }
      }
    }
  }
  JOINT lButtock
  {
    OFFSET 8.77824 4.35084 1.2192
    CHANNELS 3 Zrotation Xrotation Yrotation
    JOINT lThigh
    {
      OFFSET 0 -1.70687 -2.19456
      CHANNELS 3 Zrotation Xrotation Yrotation
      JOINT lShin
      {
        OFFSET 0 -36.8199 0.73152
        CHANNELS 3 Zrotation Xrotation Yrotation
        JOINT lFoot
        {
          OFFSET -0.73152 -45.1104 -5.12064
          CHANNELS 3 Zrotation Xrotation Yrotation
          End Site
          {
            OFFSET 1.1221 -3.69964 12.103
          }
        }
      }
    }
  }
}
MOTION
Frames:	5
Frame Time:	0.03333
0.0 0.0 0.0 0.0 0.0 0.0 0.0 0.0 0.0 0.0 0.0 0.0 0.0 0.0 0.0 0.0 0.0 0.0 0.0 0.0 0.0 0.0 0.0 0.0 0.0 0.0 0.0 0.0 0.0 0.0 0.0 0.0 0.0 0.0 0.0 0.0 0.0 0.0 0.0 0.0 0.0 0.0 0.0 0.0 0.0 0.0 0.0 0.0 0.0 0.0 0.0 0.0 0.0 0.0 0.0 0.0 0.0 0.0 0.0 0.0 0.0 0.0 0.0 0.0 0.0 0.0 0.0 0.0 0.0 0.0 0.0 0.0 0.0 0.0 0.0 0.0 0.0 0.0 0.0 0.0 0.0 0.0 0.0 0.0 0.0 0.0 0.0 0.0 0.0 0.0 0.0 0.0 0.0 0.0 0.0 0.0 0.0 0.0 0.0 0.0 0.0 0.0 0.0 0.0 0.0 0.0 0.0 0.0 0.0 0.0 0.0 0.0 0.0 0.0 0.0 0.0 0.0 0.0 0.0 0.0 0.0 0.0 0.0 0.0 0.0 0.0 0.0 0.0 0.0 0.0 0.0 0.0
0.1037 69.0181 0.1905 -0.417047 -46.978981 -0.276249 -1.049469 -0.974397 94.308923 -6.719893 6.092042 51.305142 -15.268034 -10.18872 -95.479098 18.353956 58.760836 153.09248 -166.527653 -6.387736 -50.575821 34.809159 4.958743 15.729281 73.484048 42.801811 10.814771 -169.876652 -1.326874 168.082013 -78.906611 89.683904 -115.28253 23.60631 -32.072143 6.741616 -3.935102 -1.310638 -30.723969 -5.303671 -58.644076 -23.977791 60.303835 -55.711243 126.768752 -130.995509 -28.109106 -117.854569 104.1831 39.601745 -124.005974 -64.080204 60.744857 -57.55897 12.649935 -20.230388 111.052211 50.133882 -16.952896 146.089765 159.967295 33.335036 54.954467 32.553774 27.365522 -83.127567 -2.448445 69.04769 -84.952671 -83.26552 -88.1889 -71.90178 3.539186 43.383426 -170.953605 -37.509928 -56.248561 -26.064691 69.39715 56.027171 -18.146781 155.008327 49.612402 58.015356 -108.993244 4.649199 -173.070105 1.51721 18.412929 141.038768 -120.61729 44.2748 157.061471 -65.05992 -65.320327 -140.113818 38.545579 -1.851968 165.194072 62.946366 24.331018 37.757652 -50.452494 27.237191 -154.591617 12.91431 49.452581 -162.505163 14.763618 66.177364 163.929565 0.540332 65.791017 174.139967 7.633602 0.464158 108.004522 63.200369 -39.555037 -108.315874 24.208508 57.245142 151.870967 -0.507818 60.904448 -0.0 3.49048 4.756242 144.587007 71.493205 -22.24385 -107.997209
0.26120000000000004 66.18260000000001 0.9214 -177.806387 -19.026777 -174.581307 0.783824 -3.042224 14.455302 -1.710954 -4.045418 -4.14233 -14.32663 -1.317667 -55.39352 24.375263 7.951317 44.166409 18.281875 1.404167 8.710198 -14.098053 -1.152972 9.30405 8.649557 -43.10187 -8.012781 -147.782568 -2.79464 171.142472 -165.733485 -33.579709 -86.960677 -4.539258 -14.715446 -16.198064 -5.696085 -3.679428 -11.206094 -83.098217 -50.910739 136.487722 -5.345832 -20.74032 -35.594775 68.285585 10.930031 31.096803 20.340412 -22.576055 -0.901442 -89.971279 48.611766 71.400551 -128.751674 -34.5814 173.867118 35.632926 -0.858494 21.647594 -113.097596 0.873576 -150.528354 -40.427694 -79.407463 -59.341544 3.005532 31.721255 -16.503828 -88.851609 -77.469953 -85.396408 -157.177731 -39.922 -37.133191 169.798665 11.726646 -141.200666 93.540822 37.787914 -41.801063 -28.379368 -0.869322 -48.488007 -148.790331 -66.763567 -94.957259 8.313442 3.431809 -1.08116 26.873323 57.42007 -15.512251 165.935556 16.931978 -131.328674 130.448166 -16.517481 161.213711 -70.634153 -4.312861 -7.447867 -59.0084 35.331831 38.144287 68.176465 10.680282 -38.279912 7.206373 -4.827961 -8.712346 -15.430486 -25.849871 83.636714 49.723497 -7.79892 57.139069 97.183462 48.970293 -151.926899 -7.238746 -6.567673 -11.667685 22.426391 -16.079495 56.134282 29.463364 42.075766 109.120383 -153.586517 20.859609 134.413138
-0.11739999999999999 69.8802 0.9969 -178.325619 -23.589892 -177.045893 -1.374133 -6.613955 69.3826 -0.964481 -5.516412 -79.442723 -18.525704 17.924371 -77.026546 42.971099 8.057937 73.351315 15.22057 -2.243161 -16.672218 3.860848 -0.088589 -2.627899 3.975191 -0.474481 17.764976 23.212497 -12.01674 9.810159 -5.076362 8.02442 101.545242 -11.495007 -19.335902 -0.139199 -164.084513 -8.929906 92.685352 -69.524104 -2.496683 34.097813 -149.229405 73.165289 135.448554 164.278128 -74.15007 177.898155 -133.782046 2.86334 156.152717 27.656294 23.753483 11.374396 -124.030558 0.234752 -169.47489 70.454534 -23.044157 45.929086 -44.75579 -23.848687 -78.642273 19.123003 -4.75625 44.332757 0.291182 -41.646294 27.858906 135.479487 43.346103 -144.259391 -57.776384 -3.907306 -155.260791 66.612823 62.998807 -43.050039 179.420817 -12.428001 -93.394645 -8.123635 -58.716729 -21.611218 96.509855 37.369894 -66.781787 156.898552 -65.297045 -114.985013 142.679079 23.825226 -150.421626 10.399738 -56.44855 63.134152 152.048511 5.063524 167.494063 -55.053309 -31.274479 -5.278449 -15.263572 78.062816 -32.046445 113.576901 22.754095 146.785978 -0.312662 -2.453506 -7.264587 -15.438626 -31.078645 -28.1465 -3.809332 60.669706 104.480807 7.47969 6.505851 -99.522419 -2.021017 -4.203282 2.445236 9.945935 -31.554774 -180.0 32.545397 -61.00183 80.74061 111.513405 -17.261789 -167.578312
-0.6854 69.8134 0.18710000000000002 -179.033963 -21.525853 -179.864409 -2.236626 -2.716399 -0.199188 7.105399 -1.525145 -5.597666 -21.146691 16.735243 -98.377252 34.936198 24.548913 85.410186 44.966702 8.297543 19.881702 0.564431 0.060824 12.300942 162.226754 -68.702248 137.550961 92.042334 80.848664 -86.457072 3.769803 28.98391 115.931793 -9.030072 20.479177 -1.290177 -173.55376 3.801242 68.058881 42.736698 -5.38069 75.03119 -163.281673 12.970547 125.752108 25.344788 76.091132 -45.450511 -152.763258 11.751767 143.671009 92.028155 -53.070161 74.877505 12.552192 -1.488484 2.37533 -126.608341 -34.034265 -155.319714 -12.700262 -45.984266 -56.449219 -168.198452 -16.208244 140.025673 61.139467 -76.433925 91.586379 -32.414091 -60.747155 -15.2857 -169.716829 2.839205 61.380429 16.404822 18.98189 0.359636 -94.291499 -48.880444 -50.023071 167.98205 27.375581 -91.25157 136.159361 -3.106234 -109.539204 174.13574 -33.82742 -103.267841 160.300768 -49.969229 -160.336492 15.33018 73.308458 -24.362322 118.380237 -45.55231 129.216604 13.752624 -17.070878 -37.058338 133.530491 -33.904925 127.10181 38.613976 -27.186609 -15.385742 -62.256453 16.399334 -26.345022 65.800856 -28.81736 -180.0 5.073718 -73.794539 -89.562884 -39.02166 -61.154165 -123.480863 37.129962 9.385434 35.171445 -48.679388 -17.807412 120.361453 57.483028 -39.217708 -154.01958 119.217135 29.754121 -28.677244
